<svg xmlns="http://www.w3.org/2000/svg" xmlns:xlink="http://www.w3.org/1999/xlink" width="120" zoomAndPan="magnify" viewBox="0 0 90 89.999999" height="120" preserveAspectRatio="xMidYMid meet" version="1.0"><defs><clipPath id="d89e0b74a6"><path d="M 1.351562 3.097656 L 88.351562 3.097656 L 88.351562 87 L 1.351562 87 Z M 1.351562 3.097656 " clip-rule="nonzero"/></clipPath></defs><g clip-path="url(#d89e0b74a6)"><path fill="#5c47e1" d="M 69.566406 86.574219 C 69.007812 86.582031 68.480469 86.457031 67.984375 86.199219 L 44.851562 73.957031 L 21.683594 86.199219 C 21.117188 86.5 20.515625 86.625 19.875 86.578125 C 19.238281 86.53125 18.660156 86.320312 18.144531 85.941406 C 17.625 85.566406 17.246094 85.078125 17 84.484375 C 16.757812 83.890625 16.6875 83.273438 16.792969 82.640625 L 21.246094 56.695312 L 2.496094 38.3125 C 2.042969 37.859375 1.742188 37.320312 1.589844 36.695312 C 1.441406 36.070312 1.46875 35.453125 1.667969 34.84375 C 1.867188 34.230469 2.210938 33.71875 2.703125 33.304688 C 3.191406 32.894531 3.753906 32.640625 4.386719 32.546875 L 30.28125 28.75 L 41.847656 5.007812 C 42.132812 4.433594 42.546875 3.976562 43.09375 3.636719 C 43.636719 3.300781 44.226562 3.128906 44.867188 3.128906 C 45.507812 3.128906 46.097656 3.300781 46.640625 3.636719 C 47.183594 3.976562 47.601562 4.433594 47.886719 5.007812 L 59.449219 28.75 L 85.316406 32.546875 C 85.953125 32.640625 86.515625 32.894531 87.007812 33.3125 C 87.5 33.730469 87.84375 34.25 88.042969 34.867188 C 88.238281 35.480469 88.257812 36.105469 88.101562 36.730469 C 87.945312 37.359375 87.632812 37.898438 87.167969 38.347656 L 68.453125 56.695312 L 72.871094 82.640625 C 72.914062 82.886719 72.929688 83.132812 72.917969 83.382812 C 72.90625 83.628906 72.867188 83.875 72.800781 84.117188 C 72.734375 84.355469 72.644531 84.585938 72.527344 84.804688 C 72.410156 85.027344 72.273438 85.230469 72.113281 85.421875 C 71.953125 85.609375 71.773438 85.777344 71.574219 85.929688 C 71.375 86.078125 71.164062 86.203125 70.9375 86.308594 C 70.710938 86.410156 70.476562 86.488281 70.234375 86.539062 C 69.992188 86.589844 69.746094 86.613281 69.5 86.609375 Z M 44.851562 66.734375 C 45.410156 66.726562 45.9375 66.851562 46.433594 67.105469 L 65.082031 76.976562 L 61.507812 56.050781 C 61.417969 55.503906 61.460938 54.964844 61.632812 54.4375 C 61.804688 53.910156 62.089844 53.453125 62.484375 53.066406 L 77.59375 38.144531 L 56.71875 35.089844 C 56.171875 35.007812 55.671875 34.800781 55.226562 34.472656 C 54.78125 34.140625 54.433594 33.726562 54.191406 33.226562 L 44.851562 14.402344 L 35.507812 33.429688 C 35.265625 33.929688 34.921875 34.347656 34.472656 34.675781 C 34.027344 35.003906 33.527344 35.210938 32.980469 35.292969 L 12.105469 38.144531 L 27.214844 52.964844 C 27.609375 53.351562 27.894531 53.808594 28.066406 54.335938 C 28.238281 54.863281 28.28125 55.402344 28.191406 55.949219 L 24.617188 76.976562 L 43.300781 67.105469 C 43.785156 66.855469 44.304688 66.730469 44.851562 66.734375 Z M 44.851562 66.734375 " fill-opacity="1" fill-rule="nonzero"/></g></svg>