<svg xmlns="http://www.w3.org/2000/svg" xmlns:xlink="http://www.w3.org/1999/xlink" width="120" zoomAndPan="magnify" viewBox="0 0 90 89.999999" height="120" preserveAspectRatio="xMidYMid meet" version="1.0"><defs><clipPath id="1b34111359"><path d="M 1.351562 3.097656 L 88.351562 3.097656 L 88.351562 87 L 1.351562 87 Z M 1.351562 3.097656 " clip-rule="nonzero"/></clipPath><clipPath id="3c395b45a1"><path d="M 8.101562 12 L 80 12 L 80 80.972656 L 8.101562 80.972656 Z M 8.101562 12 " clip-rule="nonzero"/></clipPath><clipPath id="759a752442"><path d="M 13.800781 18.796875 L 71.550781 18.796875 L 71.550781 74 L 13.800781 74 Z M 13.800781 18.796875 " clip-rule="nonzero"/></clipPath><clipPath id="386adbc3f9"><path d="M 16.863281 21.738281 L 68.613281 21.738281 L 68.613281 71 L 16.863281 71 Z M 16.863281 21.738281 " clip-rule="nonzero"/></clipPath><clipPath id="fe776e61d1"><path d="M 21.429688 26.121094 L 64.179688 26.121094 L 64.179688 66.621094 L 21.429688 66.621094 Z M 21.429688 26.121094 " clip-rule="nonzero"/></clipPath><clipPath id="4363e235cd"><path d="M 24.625 29.851562 L 63.476562 29.851562 L 63.476562 68.699219 L 24.625 68.699219 Z M 24.625 29.851562 " clip-rule="nonzero"/></clipPath><clipPath id="7a4660d7ec"><path d="M 44.050781 29.851562 C 33.324219 29.851562 24.625 38.546875 24.625 49.273438 C 24.625 60.003906 33.324219 68.699219 44.050781 68.699219 C 54.78125 68.699219 63.476562 60.003906 63.476562 49.273438 C 63.476562 38.546875 54.78125 29.851562 44.050781 29.851562 " clip-rule="nonzero"/></clipPath></defs><g clip-path="url(#1b34111359)"><path fill="#5c47e1" d="M 69.566406 86.574219 C 69.007812 86.582031 68.480469 86.457031 67.984375 86.199219 L 44.851562 73.957031 L 21.683594 86.199219 C 21.117188 86.5 20.515625 86.625 19.875 86.578125 C 19.238281 86.53125 18.660156 86.320312 18.144531 85.941406 C 17.625 85.566406 17.246094 85.078125 17 84.484375 C 16.757812 83.890625 16.6875 83.273438 16.792969 82.640625 L 21.246094 56.695312 L 2.496094 38.3125 C 2.042969 37.859375 1.742188 37.320312 1.589844 36.695312 C 1.441406 36.070312 1.46875 35.453125 1.667969 34.84375 C 1.867188 34.230469 2.210938 33.71875 2.703125 33.304688 C 3.191406 32.894531 3.753906 32.640625 4.386719 32.546875 L 30.28125 28.75 L 41.847656 5.007812 C 42.132812 4.433594 42.546875 3.976562 43.09375 3.636719 C 43.636719 3.300781 44.226562 3.128906 44.867188 3.128906 C 45.507812 3.128906 46.097656 3.300781 46.640625 3.636719 C 47.183594 3.976562 47.601562 4.433594 47.886719 5.007812 L 59.449219 28.75 L 85.316406 32.546875 C 85.953125 32.640625 86.515625 32.894531 87.007812 33.3125 C 87.5 33.730469 87.84375 34.25 88.042969 34.867188 C 88.238281 35.480469 88.257812 36.105469 88.101562 36.730469 C 87.945312 37.359375 87.632812 37.898438 87.167969 38.347656 L 68.453125 56.695312 L 72.871094 82.640625 C 72.914062 82.886719 72.929688 83.132812 72.917969 83.382812 C 72.90625 83.628906 72.867188 83.875 72.800781 84.117188 C 72.734375 84.355469 72.644531 84.585938 72.527344 84.804688 C 72.410156 85.027344 72.273438 85.230469 72.113281 85.421875 C 71.953125 85.609375 71.773438 85.777344 71.574219 85.929688 C 71.375 86.078125 71.164062 86.203125 70.9375 86.308594 C 70.710938 86.410156 70.476562 86.488281 70.234375 86.539062 C 69.992188 86.589844 69.746094 86.613281 69.5 86.609375 Z M 44.851562 66.734375 C 45.410156 66.726562 45.9375 66.851562 46.433594 67.105469 L 65.082031 76.976562 L 61.507812 56.050781 C 61.417969 55.503906 61.460938 54.964844 61.632812 54.4375 C 61.804688 53.910156 62.089844 53.453125 62.484375 53.066406 L 77.59375 38.144531 L 56.71875 35.089844 C 56.171875 35.007812 55.671875 34.800781 55.226562 34.472656 C 54.78125 34.140625 54.433594 33.726562 54.191406 33.226562 L 44.851562 14.402344 L 35.507812 33.429688 C 35.265625 33.929688 34.921875 34.347656 34.472656 34.675781 C 34.027344 35.003906 33.527344 35.210938 32.980469 35.292969 L 12.105469 38.144531 L 27.214844 52.964844 C 27.609375 53.351562 27.894531 53.808594 28.066406 54.335938 C 28.238281 54.863281 28.28125 55.402344 28.191406 55.949219 L 24.617188 76.976562 L 43.300781 67.105469 C 43.785156 66.855469 44.304688 66.730469 44.851562 66.734375 Z M 44.851562 66.734375 " fill-opacity="1" fill-rule="nonzero"/></g><g clip-path="url(#3c395b45a1)"><path fill="#5c47e1" d="M 64.554688 80.542969 C 64.09375 80.546875 63.65625 80.445312 63.246094 80.234375 L 44.101562 70.179688 L 24.929688 80.234375 C 24.457031 80.480469 23.960938 80.582031 23.433594 80.546875 C 22.90625 80.507812 22.425781 80.332031 21.996094 80.023438 C 21.570312 79.714844 21.253906 79.3125 21.054688 78.824219 C 20.851562 78.335938 20.792969 77.832031 20.882812 77.308594 L 24.566406 56 L 9.050781 40.902344 C 8.671875 40.53125 8.421875 40.085938 8.300781 39.574219 C 8.175781 39.058594 8.195312 38.550781 8.363281 38.050781 C 8.527344 37.550781 8.8125 37.128906 9.21875 36.789062 C 9.625 36.449219 10.089844 36.242188 10.613281 36.164062 L 32.042969 33.046875 L 41.617188 13.546875 C 41.851562 13.074219 42.195312 12.699219 42.644531 12.421875 C 43.09375 12.140625 43.585938 12.003906 44.113281 12.003906 C 44.644531 12.003906 45.132812 12.140625 45.582031 12.421875 C 46.03125 12.699219 46.375 13.074219 46.613281 13.546875 L 56.183594 33.046875 L 77.589844 36.164062 C 78.117188 36.242188 78.582031 36.453125 78.988281 36.796875 C 79.394531 37.136719 79.679688 37.5625 79.84375 38.070312 C 80.007812 38.574219 80.023438 39.085938 79.894531 39.601562 C 79.765625 40.117188 79.507812 40.558594 79.125 40.929688 L 63.636719 56 L 67.289062 77.308594 C 67.324219 77.511719 67.339844 77.714844 67.328125 77.917969 C 67.316406 78.125 67.285156 78.324219 67.230469 78.523438 C 67.175781 78.71875 67.101562 78.910156 67.007812 79.089844 C 66.910156 79.269531 66.796875 79.4375 66.660156 79.59375 C 66.527344 79.75 66.378906 79.886719 66.214844 80.011719 C 66.050781 80.132812 65.875 80.238281 65.691406 80.320312 C 65.503906 80.40625 65.308594 80.46875 65.109375 80.511719 C 64.90625 80.554688 64.703125 80.570312 64.5 80.570312 Z M 44.101562 64.246094 C 44.5625 64.238281 45 64.339844 45.410156 64.550781 L 60.84375 72.65625 L 57.886719 55.46875 C 57.8125 55.019531 57.847656 54.578125 57.988281 54.144531 C 58.132812 53.710938 58.367188 53.335938 58.695312 53.019531 L 71.199219 40.761719 L 53.921875 38.253906 C 53.46875 38.1875 53.058594 38.015625 52.6875 37.746094 C 52.316406 37.476562 52.03125 37.132812 51.832031 36.722656 L 44.101562 21.261719 L 36.371094 36.890625 C 36.167969 37.300781 35.882812 37.644531 35.511719 37.914062 C 35.140625 38.183594 34.730469 38.355469 34.277344 38.421875 L 17.003906 40.761719 L 29.503906 52.933594 C 29.832031 53.253906 30.066406 53.628906 30.210938 54.0625 C 30.355469 54.496094 30.386719 54.9375 30.3125 55.386719 L 27.355469 72.65625 L 42.816406 64.550781 C 43.21875 64.34375 43.648438 64.242188 44.101562 64.246094 Z M 44.101562 64.246094 " fill-opacity="1" fill-rule="nonzero"/></g><g clip-path="url(#759a752442)"><path fill="#5c47e1" d="M 59.082031 73.953125 C 58.710938 73.957031 58.359375 73.875 58.03125 73.707031 L 42.675781 65.617188 L 27.296875 73.707031 C 26.921875 73.902344 26.519531 73.988281 26.097656 73.957031 C 25.675781 73.925781 25.289062 73.785156 24.945312 73.535156 C 24.601562 73.289062 24.351562 72.964844 24.1875 72.574219 C 24.027344 72.179688 23.980469 71.773438 24.050781 71.355469 L 27.007812 54.210938 L 14.5625 42.066406 C 14.257812 41.765625 14.058594 41.410156 13.960938 41 C 13.859375 40.585938 13.878906 40.175781 14.011719 39.773438 C 14.144531 39.371094 14.371094 39.03125 14.695312 38.757812 C 15.023438 38.484375 15.394531 38.316406 15.816406 38.257812 L 33.003906 35.746094 L 40.683594 20.0625 C 40.871094 19.679688 41.148438 19.378906 41.507812 19.15625 C 41.867188 18.933594 42.261719 18.820312 42.6875 18.820312 C 43.109375 18.820312 43.503906 18.933594 43.863281 19.15625 C 44.226562 19.378906 44.5 19.679688 44.691406 20.0625 L 52.367188 35.746094 L 69.535156 38.257812 C 69.957031 38.316406 70.332031 38.488281 70.660156 38.761719 C 70.984375 39.039062 71.214844 39.382812 71.34375 39.789062 C 71.476562 40.195312 71.488281 40.605469 71.382812 41.019531 C 71.28125 41.4375 71.074219 41.792969 70.765625 42.089844 L 58.34375 54.210938 L 61.277344 71.355469 C 61.332031 71.683594 61.316406 72.007812 61.226562 72.328125 C 61.140625 72.652344 60.988281 72.9375 60.773438 73.191406 C 60.554688 73.445312 60.296875 73.640625 59.992188 73.777344 C 59.6875 73.914062 59.371094 73.980469 59.039062 73.976562 Z M 42.675781 60.84375 C 43.046875 60.839844 43.398438 60.921875 43.726562 61.089844 L 56.105469 67.613281 L 53.734375 53.785156 C 53.671875 53.425781 53.699219 53.070312 53.816406 52.71875 C 53.929688 52.371094 54.117188 52.070312 54.382812 51.8125 L 64.410156 41.953125 L 50.554688 39.9375 C 50.191406 39.882812 49.859375 39.746094 49.5625 39.527344 C 49.265625 39.3125 49.035156 39.035156 48.875 38.703125 L 42.675781 26.269531 L 36.476562 38.839844 C 36.3125 39.171875 36.082031 39.445312 35.789062 39.664062 C 35.492188 39.882812 35.160156 40.015625 34.796875 40.070312 L 20.941406 41.953125 L 30.96875 51.746094 C 31.230469 52.003906 31.421875 52.304688 31.535156 52.652344 C 31.648438 53 31.675781 53.355469 31.617188 53.71875 L 29.246094 67.613281 L 41.644531 61.089844 C 41.96875 60.925781 42.3125 60.84375 42.675781 60.84375 Z M 42.675781 60.84375 " fill-opacity="1" fill-rule="nonzero"/></g><g clip-path="url(#386adbc3f9)"><path fill="#5c47e1" d="M 57.4375 70.929688 C 57.105469 70.933594 56.792969 70.859375 56.496094 70.710938 L 42.738281 63.496094 L 28.957031 70.710938 C 28.621094 70.886719 28.261719 70.960938 27.882812 70.933594 C 27.503906 70.90625 27.160156 70.78125 26.851562 70.558594 C 26.542969 70.335938 26.316406 70.046875 26.171875 69.699219 C 26.027344 69.347656 25.984375 68.984375 26.046875 68.609375 L 28.695312 53.320312 L 17.542969 42.488281 C 17.273438 42.222656 17.09375 41.90625 17.003906 41.539062 C 16.917969 41.167969 16.929688 40.804688 17.050781 40.445312 C 17.167969 40.085938 17.375 39.785156 17.664062 39.539062 C 17.957031 39.296875 18.289062 39.148438 18.667969 39.09375 L 34.070312 36.855469 L 40.953125 22.863281 C 41.121094 22.523438 41.367188 22.253906 41.691406 22.054688 C 42.015625 21.855469 42.367188 21.757812 42.746094 21.757812 C 43.125 21.757812 43.480469 21.855469 43.800781 22.054688 C 44.125 22.253906 44.371094 22.523438 44.542969 22.863281 L 51.421875 36.855469 L 66.804688 39.09375 C 67.183594 39.148438 67.519531 39.296875 67.8125 39.542969 C 68.105469 39.789062 68.308594 40.09375 68.425781 40.457031 C 68.546875 40.820312 68.558594 41.1875 68.464844 41.558594 C 68.371094 41.929688 68.183594 42.246094 67.910156 42.511719 L 56.777344 53.320312 L 59.40625 68.609375 C 59.457031 68.902344 59.441406 69.195312 59.363281 69.480469 C 59.285156 69.765625 59.148438 70.023438 58.953125 70.25 C 58.757812 70.476562 58.527344 70.648438 58.253906 70.773438 C 57.984375 70.894531 57.699219 70.953125 57.398438 70.949219 Z M 42.738281 59.238281 C 43.070312 59.234375 43.382812 59.304688 43.679688 59.457031 L 54.769531 65.273438 L 52.644531 52.941406 C 52.53125 52.253906 52.726562 51.667969 53.226562 51.183594 L 62.214844 42.390625 L 49.796875 40.589844 C 49.101562 40.488281 48.601562 40.121094 48.292969 39.492188 L 42.738281 28.398438 L 37.179688 39.613281 C 36.871094 40.242188 36.371094 40.605469 35.675781 40.710938 L 23.261719 42.390625 L 32.246094 51.125 C 32.746094 51.609375 32.941406 52.195312 32.828125 52.882812 L 30.703125 65.273438 L 41.8125 59.457031 C 42.101562 59.308594 42.410156 59.238281 42.738281 59.238281 Z M 42.738281 59.238281 " fill-opacity="1" fill-rule="nonzero"/></g><g clip-path="url(#fe776e61d1)"><path fill="#5c47e1" d="M 54.949219 66.371094 C 54.675781 66.375 54.414062 66.3125 54.167969 66.191406 L 42.804688 60.285156 L 31.417969 66.191406 C 31.140625 66.335938 30.84375 66.394531 30.53125 66.371094 C 30.21875 66.351562 29.933594 66.246094 29.679688 66.066406 C 29.425781 65.882812 29.238281 65.648438 29.117188 65.363281 C 29 65.074219 28.964844 64.777344 29.015625 64.472656 L 31.203125 51.964844 L 21.992188 43.101562 C 21.769531 42.882812 21.621094 42.621094 21.546875 42.320312 C 21.472656 42.019531 21.484375 41.722656 21.582031 41.425781 C 21.683594 41.132812 21.851562 40.886719 22.09375 40.6875 C 22.332031 40.488281 22.609375 40.363281 22.917969 40.320312 L 35.644531 38.488281 L 41.328125 27.042969 C 41.46875 26.765625 41.671875 26.542969 41.9375 26.382812 C 42.207031 26.21875 42.496094 26.136719 42.8125 26.136719 C 43.125 26.136719 43.417969 26.21875 43.683594 26.382812 C 43.949219 26.542969 44.152344 26.765625 44.292969 27.042969 L 49.976562 38.488281 L 62.6875 40.320312 C 63 40.363281 63.277344 40.488281 63.519531 40.691406 C 63.761719 40.890625 63.929688 41.140625 64.027344 41.4375 C 64.121094 41.734375 64.132812 42.035156 64.054688 42.335938 C 63.976562 42.640625 63.824219 42.898438 63.597656 43.117188 L 54.402344 51.964844 L 56.574219 64.472656 C 56.613281 64.714844 56.601562 64.949219 56.539062 65.183594 C 56.472656 65.417969 56.359375 65.628906 56.199219 65.8125 C 56.039062 66 55.847656 66.140625 55.621094 66.242188 C 55.398438 66.34375 55.160156 66.390625 54.914062 66.386719 Z M 42.804688 56.804688 C 43.078125 56.800781 43.335938 56.859375 43.582031 56.984375 L 52.746094 61.742188 L 50.988281 51.652344 C 50.894531 51.089844 51.054688 50.609375 51.46875 50.214844 L 58.890625 43.019531 L 48.636719 41.546875 C 48.0625 41.460938 47.648438 41.160156 47.394531 40.648438 L 42.804688 31.570312 L 38.214844 40.746094 C 37.957031 41.261719 37.542969 41.558594 36.96875 41.644531 L 26.714844 43.019531 L 34.136719 50.164062 C 34.550781 50.5625 34.710938 51.042969 34.617188 51.605469 L 32.859375 61.742188 L 42.039062 56.984375 C 42.28125 56.863281 42.535156 56.804688 42.804688 56.804688 Z M 42.804688 56.804688 " fill-opacity="1" fill-rule="nonzero"/></g><g clip-path="url(#4363e235cd)"><g clip-path="url(#7a4660d7ec)"><path fill="#5c47e1" d="M 24.625 29.851562 L 63.476562 29.851562 L 63.476562 68.699219 L 24.625 68.699219 Z M 24.625 29.851562 " fill-opacity="1" fill-rule="nonzero"/></g></g></svg>